HIERARCHY
ROOT Hips
{
  OFFSET 279.157 85.6768 304.565
  CHANNELS 6 Xposition Yposition Zposition Zrotation Xrotation Yrotation
  JOINT LeftUpLeg
  {
    OFFSET 8.64259 1.95398 -2.38835
    CHANNELS 3 Zrotation Xrotation Yrotation
    JOINT LeftLeg
    {
      OFFSET 43.7702 0 0
      CHANNELS 3 Zrotation Xrotation Yrotation
      JOINT LeftFoot
      {
        OFFSET 40.6238 0 0
        CHANNELS 3 Zrotation Xrotation Yrotation
        JOINT LeftToeBase
        {
          OFFSET 12.7242 0 0
          CHANNELS 3 Zrotation Xrotation Yrotation
          End Site
          {
            OFFSET 0 0 0
          }
        }
      }
    }
  }
  JOINT RightUpLeg
  {
    OFFSET -8.2249 1.95398 -2.59336
    CHANNELS 3 Zrotation Xrotation Yrotation
    JOINT RightLeg
    {
      OFFSET 43.5653 0 0
      CHANNELS 3 Zrotation Xrotation Yrotation
      JOINT RightFoot
      {
        OFFSET 40.6238 0 0
        CHANNELS 3 Zrotation Xrotation Yrotation
        JOINT RightToeBase
        {
          OFFSET 12.7242 0 0
          CHANNELS 3 Zrotation Xrotation Yrotation
          End Site
          {
            OFFSET 0 0 0
          }
        }
      }
    }
  }
  JOINT Spine
  {
    OFFSET 0.165834 0.87714 6.61349
    CHANNELS 3 Zrotation Xrotation Yrotation
    JOINT Spine1
    {
      OFFSET 7.38963 1.71661e-005 0
      CHANNELS 3 Zrotation Xrotation Yrotation
      JOINT Spine2
      {
        OFFSET 11.9445 1.14441e-005 0
        CHANNELS 3 Zrotation Xrotation Yrotation
        JOINT Spine3
        {
          OFFSET 14.7254 4.19617e-005 0
          CHANNELS 3 Zrotation Xrotation Yrotation
          JOINT Spine4
          {
            OFFSET 10.9679 0 0
            CHANNELS 3 Zrotation Xrotation Yrotation
            JOINT RightShoulder
            {
              OFFSET 2.46616 -1.6653 3.69651
              CHANNELS 3 Zrotation Xrotation Yrotation
              JOINT RightArm
              {
                OFFSET 13.0012 0 0
                CHANNELS 3 Zrotation Xrotation Yrotation
                JOINT RightForeArm
                {
                  OFFSET 28.7848 1.52588e-005 0
                  CHANNELS 3 Zrotation Xrotation Yrotation
                  JOINT RightHand
                  {
                    OFFSET 26.5688 1.52588e-005 0
                    CHANNELS 3 Zrotation Xrotation Yrotation
                    End Site
                    {
                      OFFSET 0 0 0
                    }
                  }
                }
              }
            }
            JOINT LeftShoulder
            {
              OFFSET 2.38034 -1.29275 -3.7523
              CHANNELS 3 Zrotation Xrotation Yrotation
              JOINT LeftArm
              {
                OFFSET 16.3182 6.10351e-005 0
                CHANNELS 3 Zrotation Xrotation Yrotation
                JOINT LeftForeArm
                {
                  OFFSET 27.0901 0 0
                  CHANNELS 3 Zrotation Xrotation Yrotation
                  JOINT LeftHand
                  {
                    OFFSET 24.5451 1.52588e-005 0
                    CHANNELS 3 Zrotation Xrotation Yrotation
                    End Site
                    {
                      OFFSET 0 0 0
                    }
                  }
                }
              }
            }
            JOINT Neck
            {
              OFFSET 5.0226 -0.0266342 0
              CHANNELS 3 Zrotation Xrotation Yrotation
              JOINT Head
              {
                OFFSET 6.69364 2.86102e-005 0
                CHANNELS 3 Zrotation Xrotation Yrotation
                End Site
                {
                  OFFSET 0 0 0
                }
              }
            }
          }
        }
      }
    }
  }
}
MOTION
Frames:	9
Frame Time:	0.0416667
11.4552 97.7841 -4.71897 -98.6416 -41.0769 -102.815 -179.846 15.7883 83.35 -7.34414 23.1747 -0.874788 59.432 0.00710939 -4.28463 23.762 -6.17478 11.5116 173.807 -13.024 88.1063 -29.83 -44.0128 -5.57111 75.6503 -12.0853 -4.97715 18.6272 1.63585 8.31639 1.9267 8.26876 -89.6866 10.3357 3.98183 0.276999 -1.32918 3.99017 0.101184 -23.9082 3.71425 1.46252 -3.8956 3.71424 1.46252 85.6156 -29.103 -115.784 30.4789 -8.7699 -11.4104 -4.78441 -26.7789 -26.0816 -27.3865 0.105591 -12.5317 -88.1892 -58.8098 82.936 -25.727 3.71652 14.055 2.10042 -0.285458 -10.8474 -2.35506 -0.0895414 -5.97392 0.791436 -3.27214 1.00049 -2.3174 -3.35674 -7.12653 
4.23506 97.7298 1.82595 -99.3748 -34.4461 -104.932 -179.333 15.343 81.3689 -19.5902 22.3104 -0.588928 58.2374 -1.24177 -4.46316 22.0882 -6.06221 7.748 173.902 -14.542 85.776 -41.4049 -45.4404 -12.8122 66.8509 -4.79609 -3.05386 26.0182 -1.07199 13.3291 2.17326 8.2685 -89.5354 10.3318 4.54229 0.529008 -1.33127 4.56116 0.328154 -23.9216 4.17295 1.87197 -3.90891 4.17296 1.87197 87.1609 -28.1966 -113.189 37.7486 -9.69677 -8.8537 3.26881 -26.7963 -12.9586 -25.7277 -0.885145 -7.45528 -89.0778 -61.5275 82.1762 -22.6446 3.37171 10.8552 2.2509 -3.16917 -12.0144 -0.695115 -0.120013 -6.38362 1.86829 -4.09749 1.17576 -3.86614 -4.08942 -8.31696 
-2.41774 97.7518 6.87542 -99.7153 -27.983 -106.178 -177.377 11.7464 80.3057 -27.1017 18.4912 -1.92217 67.243 4.31251 -2.48569 15.8381 -9.60646 6.44124 173.598 -7.83928 81.2251 -53.9814 -42.2627 -11.743 53.1105 3.86636 3.11383 32.728 -1.58722 3.20984 1.72967 8.24424 -89.1538 10.3635 3.83317 1.34716 -1.30231 3.88874 1.17693 -23.8666 3.25106 2.43772 -3.85396 3.25106 2.43772 85.5685 -30.3327 -115.252 39.9036 -11.5042 -6.3118 8.50786 -26.0108 -5.25453 -21.1281 -1.08698 -6.18235 -88.9573 -58.9327 81.9112 -20.9431 5.74463 5.24742 1.46494 -3.07482 -10.1912 -1.52526 -0.101336 -6.376 2.21123 -3.77744 -2.11431 -3.60601 -3.2983 -6.40676 
-8.07767 98.5406 10.225 -98.7272 -20.0567 -103.666 -176.117 5.90662 81.5843 -26.7162 12.2395 -2.36694 71.7752 7.2936 -1.29737 15.4033 -9.4175 5.25774 177.068 3.51081 82.3079 -62.974 -27.6444 -8.86137 59.2166 0.323899 1.32307 26.6584 0.158792 3.78922 1.32091 8.23115 -89.2136 10.3937 2.99159 1.29938 -1.27429 3.04589 1.16635 -23.8244 2.4628 2.13867 -3.81177 2.46279 2.13867 85.9275 -30.7807 -114.345 40.2332 -12.4618 -2.40078 6.93319 -27.2068 -8.47779 -22.2908 -0.817709 -8.18918 -89.3765 -57.0874 81.0134 -16.109 8.43583 -4.85989 0.0853366 -3.47952 -5.0106 -1.47752 -0.0973088 -5.14428 2.54828 -2.76418 -3.91845 -3.37699 -2.0347 -4.99328 
-13.4792 99.7113 12.4316 -97.607 -12.8906 -98.4357 -174.735 -0.281347 85.2061 -23.0198 7.06075 -1.90418 73.5137 7.60024 -3.00013 19.3869 -8.84828 10.6222 179.212 13.2831 87.8487 -57.7244 -16.2675 -6.00591 66.2839 -4.22258 -2.33817 24.7241 0.880458 3.11266 0.780421 8.17402 -89.605 10.524 1.73599 0.63143 -1.14591 1.76209 0.554393 -23.6869 1.46598 1.12404 -3.6743 1.46598 1.12404 86.9779 -30.3317 -112.536 39.1687 -12.296 -0.318007 2.94447 -26.8912 -15.269 -23.3825 -0.489097 -9.96699 -89.3104 -54.7969 80.6915 -11.6432 5.93079 -10.39 1.4218 -4.37978 -6.72659 -1.16407 -0.103492 -5.71523 0.0117453 -1.07121 -4.83537 -1.95245 -0.3801 -3.45153 
-19.1226 99.7559 14.1141 -96.1631 -7.194 -93.8773 -173.315 -4.29239 88.03 -20.9873 2.26416 -1.41647 76.3143 8.32674 -3.69723 20.8307 -8.65222 12.7511 179.486 19.4605 92.8797 -40.6261 -15.2817 -3.06487 64.2529 -2.84828 -1.15024 24.5352 0.842616 3.65749 0.294424 8.11387 -89.8761 10.6457 0.643423 0.187933 -1.02513 0.651097 0.159425 -23.5612 0.557181 0.372629 -3.54855 0.557225 0.372634 86.6855 -32.2791 -112.216 36.7069 -9.9174 0.776336 -0.531989 -28.2249 -19.3325 -25.0972 -0.571366 -9.73924 -88.6017 -51.1227 81.0338 -7.98517 1.26541 -13.4829 3.39895 -4.69633 -11.2978 1.7746 -0.234595 -8.34752 -0.244948 0.366195 -7.31066 -1.44531 1.36474 -0.347501 
-25.6073 98.8387 15.3457 -94.9315 -5.24459 -91.41 -172.196 -8.67246 89.8846 -18.9178 -0.348486 -1.03668 80.6212 10.0853 -4.95923 19.9632 -9.6815 13.8342 179.343 20.3641 95.3323 -18.1288 -15.7396 -0.58592 61.7953 -1.7952 -1.2511 21.971 1.37179 5.0477 -0.0892568 8.06439 -90.039 10.7456 -0.19566 -0.0591347 -0.92534 -0.198068 -0.0504751 -23.4606 -0.168854 -0.115212 -3.4479 -0.168811 -0.1152 87.2704 -33.6221 -110.547 37.2911 -6.66967 1.62642 0.339215 -21.9648 -17.5223 -27.9321 -0.173437 -9.42867 -88.492 -48.0796 80.6166 -5.74254 -1.75616 -19.083 4.10882 -7.1003 -13.7498 4.29958 -0.335615 -8.58904 0.479182 0.0166518 -8.50572 -1.60628 1.23968 0.613038 
-33.5898 97.5766 16.4877 -94.8846 -7.55091 -89.8289 -170.99 -14.1221 92.2721 -17.1658 1.7169 0.186141 81.701 12.3551 -2.58534 23.0949 -6.66743 11.4999 179.481 19.4576 95.5255 -8.30333 -14.2046 -0.328258 62.9077 -2.58188 -1.83082 19.1701 2.12482 5.4832 -0.48971 8.07299 -90.2568 10.7251 -1.09353 -0.410892 -0.945501 -1.11053 -0.362368 -23.4828 -0.919494 -0.720567 -3.47017 -0.919466 -0.72056 87.0837 -35.0182 -110.322 37.7326 -5.77596 3.79381 2.55744 -23.0507 -13.3928 -24.6629 -0.242245 -10.0782 -89.3617 -48.6148 79.3951 -5.91169 -3.5019 -26.7309 4.92119 -6.55521 -14.9131 5.3624 -0.426511 -9.27674 1.97729 -1.14929 -8.83691 -2.88404 0.253908 0.252898 
-43.4336 97.1377 17.4013 -95.8025 -9.7825 -87.1329 -167.998 -17.3708 97.6715 -20.6002 5.29635 1.57221 76.6089 10.1344 -1.01615 34.3493 -0.371717 18.8055 178.28 19.3968 97.0365 -15.8515 -12.1161 1.26381 58.8416 0.576141 -0.841907 23.2965 1.43242 2.49855 -0.62758 8.07073 -90.5863 10.7265 -1.51999 -1.02558 -0.943851 -1.56364 -0.957698 -23.4804 -1.14154 -1.43498 -3.46775 -1.14153 -1.43498 87.1923 -35.4436 -109.954 39.475 -5.4034 5.61794 6.17917 -25.1767 -7.24714 -18.1663 -0.722429 -8.62232 -90.1257 -49.9728 78.5343 -10.0329 -2.34606 -30.2358 7.5556 4.03603 -17.8997 2.22775 -0.374883 -12.0505 2.27327 -2.13857 -9.64215 -3.83823 -0.585295 0.585338 
